<svg width="91" height="91" viewBox="0 0 91 91" fill="none" xmlns="http://www.w3.org/2000/svg">
<g filter="url(#filter0_d_52_9)">
<circle cx="43" cy="43" r="40" fill="#01203F"/>
<path d="M48.3517 25.5352C48.4446 25.5352 48.5161 25.5281 48.5732 25.5138C48.8948 25.4423 49.1307 25.1922 49.2379 24.8277C49.388 24.306 49.245 23.4841 48.6018 22.8338C48.3946 22.6265 48.0658 22.6265 47.8586 22.8338C47.6513 23.041 47.6513 23.3698 47.8586 23.577C48.2016 23.9201 48.2659 24.3131 48.2445 24.4847H48.2374C47.537 24.4847 46.0862 23.8986 45.9575 23.6556C45.8146 23.3984 45.493 23.3055 45.2429 23.4484C44.9856 23.5913 44.8998 23.9129 45.0356 24.1631C45.5144 25.0421 47.5513 25.5352 48.3517 25.5352Z" fill="#F2EEE6"/>
<path d="M24.8604 66.3859C24.8604 67.608 33.0005 68.5942 43.0488 68.5942C53.0971 68.5942 61.2372 67.608 61.2372 66.3859C61.2372 65.1638 53.0971 64.1776 43.0488 64.1776C40.8333 64.1776 38.7107 64.2276 36.7525 64.3134C36.8954 64.1418 37.0312 63.9632 37.1527 63.7845C37.1599 63.7774 37.1599 63.7702 37.167 63.7631C37.4886 63.2914 37.753 62.7697 37.946 62.2051L39.3682 57.917C42.1197 56.845 44.228 54.6367 45.1642 51.8209L49.7024 40.479C49.8024 40.2361 49.7024 39.9502 49.4737 39.8215C49.245 39.6929 48.952 39.7501 48.7947 39.9645C46.9294 42.4515 42.4198 47.7258 38.6821 49.8127C39.3825 48.1689 40.1329 45.639 40.1329 43.6165C40.1258 41.4581 40.6975 37.4417 42.2483 34.5187C42.6771 35.2333 43.206 35.848 43.8206 36.1338C44.0636 36.2482 44.3137 36.3054 44.5639 36.3054C44.7711 36.3054 44.9784 36.2696 45.1713 36.191C45.4 36.141 45.5858 35.9838 45.693 35.7551C46.0361 35.0189 45.5501 32.9178 44.9426 31.2598C45.2857 31.2955 45.6287 31.3098 45.9646 31.2955C46.3863 32.5962 47.3011 34.8903 48.6804 35.5264C48.9234 35.6407 49.1735 35.6979 49.4236 35.6979C49.6309 35.6979 49.8381 35.6622 50.0311 35.5835C50.2169 35.5407 50.3742 35.4335 50.4885 35.2691C50.9959 34.5187 50.3527 32.2675 50.0097 31.224C50.0597 30.7595 50.0168 30.2235 49.9739 29.7161C49.9311 29.2372 49.8596 28.3511 49.9954 28.1938C50.8673 27.7007 51.5105 26.7287 51.9893 25.1422C53.0899 25.1636 54.3048 24.9778 54.7408 24.6062C54.7694 24.5847 54.7908 24.5561 54.8194 24.5347C54.8337 24.5204 54.8409 24.5061 54.8551 24.4918C54.8623 24.4775 54.8766 24.4704 54.8837 24.4561C54.898 24.4347 54.9123 24.4061 54.9266 24.3846C54.9266 24.3775 54.9338 24.3775 54.9338 24.3703C54.9481 24.3417 54.9552 24.3132 54.9695 24.2774C55.0124 24.1416 55.0124 23.9987 54.9623 23.8486C54.7051 22.9839 52.4538 21.726 51.5391 21.4116C51.5176 21.3759 51.489 21.3473 51.4676 21.3115C51.4605 21.2972 51.4462 21.2829 51.439 21.2687C51.4104 21.2258 51.3747 21.19 51.339 21.1472C51.3318 21.14 51.3247 21.1257 51.3175 21.1186C51.2746 21.0685 51.2318 21.0185 51.1889 20.9756C51.1889 20.9685 51.1817 20.9685 51.1817 20.9685C47.9443 17.3237 36.7882 12.714 31.807 28.6369C31.5497 29.4659 31.2853 30.2878 31.0351 31.0883C30.2847 33.4824 29.5915 35.6622 29.0483 37.5346L26.3826 45.589C25.5679 48.0474 25.7608 50.7346 26.89 53.0501L25.8395 56.1518C25.7894 56.2233 25.7608 56.309 25.7537 56.4019L25.2749 57.817C25.0748 58.403 24.9604 58.9962 24.9247 59.5822C24.9247 59.5965 24.9175 59.6108 24.9175 59.6251C24.9175 59.6323 24.9175 59.6323 24.9175 59.6323C24.796 61.7977 25.7465 63.8989 27.4332 65.2496C27.4332 65.2496 24.8604 65.9714 24.8604 66.3859ZM37.7245 59.5322C36.2236 58.4316 34.5585 57.5669 32.7789 56.9522C30.9136 56.309 28.984 55.9588 27.0258 55.9231L27.7476 53.7862H27.7548C29.713 53.7862 31.6569 54.115 33.5293 54.7653C35.3017 55.38 36.9526 56.259 38.432 57.381C38.4391 57.3667 37.7245 59.5322 37.7245 59.5322ZM44.3137 46.6681C45.4858 45.5103 46.5649 44.324 47.4368 43.302L44.1779 51.4421C44.1708 51.4493 44.1708 51.4636 44.1637 51.4707C43.7563 52.6999 43.0988 53.7934 42.2483 54.7082C41.3264 54.8082 39.9757 54.8725 38.7464 54.6224C39.1967 54.3937 39.6112 54.115 39.9971 53.7862C40.8547 53.0501 41.4979 52.0853 41.8553 51.0062C41.8981 50.8704 41.8624 50.7274 41.7695 50.6274C41.6694 50.5273 41.5265 50.4916 41.3907 50.5345C40.8333 50.7132 40.1543 50.8132 39.4897 50.8275C39.3325 50.8346 39.1752 50.8275 39.0252 50.8204C40.5831 49.9913 42.3484 48.6049 44.3137 46.6681ZM39.5111 51.5779C39.99 51.5708 40.4545 51.5207 40.8976 51.435C40.5688 52.1211 40.1043 52.7285 39.5254 53.2216C38.9394 53.7291 38.2605 54.1007 37.5243 54.3151C37.4029 54.3508 37.3099 54.4437 37.2742 54.5581C37.2385 54.6796 37.2599 54.8082 37.3385 54.9011L37.3457 54.9154C37.3886 54.9655 37.4386 55.0012 37.5029 55.0298C39.068 55.6444 41.1191 55.5372 41.405 55.5229C40.7975 56.0232 40.1186 56.4377 39.3896 56.7664C37.7459 55.4657 35.8877 54.458 33.8867 53.7648C33.6866 53.6933 33.4864 53.629 33.2863 53.5718C33.3149 52.7285 33.3864 51.8638 33.4793 51.0205C33.9152 51.242 34.3655 51.4278 34.83 51.585C34.9587 51.6279 35.2302 51.6923 35.2374 51.6923C35.9521 51.828 36.7454 51.7494 37.6315 51.4493C37.653 51.4421 37.753 51.4064 37.7816 51.3992C38.2962 51.5207 38.8894 51.5779 39.5111 51.5779ZM33.6151 49.8984C33.6651 49.5196 33.7223 49.148 33.7795 48.7978C33.8009 48.8336 33.8223 48.8693 33.8438 48.8979C34.1868 49.4196 34.5013 49.8913 34.6657 50.3987C34.3083 50.2558 33.9581 50.0842 33.6151 49.8984ZM39.0752 43.6236C39.0823 46.1107 37.8031 49.4839 37.1742 50.4916C36.6953 50.6417 36.2451 50.7132 35.8234 50.6989C35.6876 49.7698 35.2017 49.0337 34.73 48.319C34.4941 47.9688 34.2583 47.6043 34.0653 47.2184C34.2297 46.3536 34.3941 45.6604 34.5084 45.2531C34.6871 44.6098 35.2517 43.5164 35.9092 42.2586C37.3385 39.4999 39.2753 35.7765 39.9114 31.8672C40.3044 31.9244 40.7046 31.9459 41.112 31.9244C41.2478 32.3461 41.4407 32.8749 41.6766 33.4181C39.7613 36.5412 39.0752 41.2009 39.0752 43.6236ZM49.6237 34.6044C49.4594 34.6616 49.3021 34.6545 49.1235 34.5687C48.5589 34.3043 47.9228 33.3966 47.3868 32.1102C47.7656 32.3747 48.173 32.5104 48.5875 32.5104C48.7876 32.5104 48.9948 32.4747 49.2021 32.4104C49.2235 32.4032 49.245 32.389 49.2664 32.3818C49.5666 33.4895 49.6666 34.2971 49.6237 34.6044ZM28.8268 43.302V43.2734C28.8482 41.5511 30.3276 36.8485 32.0428 31.4027C32.2929 30.6023 32.5502 29.7804 32.8147 28.9442C37.753 13.1714 48.9091 18.7744 50.8816 22.3407C50.8816 22.3407 51.1246 22.3407 51.4747 22.4979C51.6177 22.5622 51.7821 22.648 51.9679 22.7409C52.6111 23.0911 53.3686 23.6056 53.7403 23.9272C53.2471 24.0487 52.3609 24.113 51.6677 24.0773C51.6463 24.0773 51.6177 24.0702 51.5962 24.0702C51.2175 24.0487 50.9102 23.9916 50.7672 23.8915C50.5242 23.7271 50.1955 23.7914 50.0383 24.0344C49.8739 24.2774 49.9382 24.6062 50.1812 24.7634C50.3527 24.8777 50.61 24.9635 50.9244 25.0278C50.5457 26.207 50.0811 26.9289 49.488 27.2648C48.759 27.6793 48.8448 28.7012 48.9377 29.7947C48.9662 30.1377 49.0163 30.7524 48.9805 31.1168C48.9662 31.1526 48.9662 31.1955 48.9591 31.2383C48.9448 31.3169 48.9162 31.3741 48.8876 31.4027C47.787 31.76 46.9008 29.8662 46.6579 29.273C45.9289 27.5149 44.4638 27.5864 44.035 27.6507C43.7491 27.6936 43.549 27.958 43.5919 28.251C43.6348 28.5369 43.8992 28.737 44.1922 28.6941C44.571 28.6369 45.2785 28.687 45.6859 29.6803C45.7645 29.8733 45.8503 30.052 45.936 30.2306C45.4715 30.2521 44.9855 30.2164 44.4995 30.1091C44.3352 29.7518 44.1779 29.4659 44.0422 29.273C43.0773 27.9294 40.3044 27.2076 39.99 27.1218C39.7112 27.0504 39.4182 27.2219 39.3468 27.5077C39.2753 27.7865 39.4468 28.0795 39.7327 28.1509C40.4831 28.3368 42.5556 29.0157 43.1845 29.8947C43.3489 30.1234 43.6634 30.8024 43.6848 30.8524C44.3066 32.3175 44.8783 34.5901 44.7711 35.2262C44.6067 35.2834 44.4495 35.2762 44.2709 35.1905C43.499 34.8331 42.6057 33.268 41.991 31.2026L41.8624 30.7738L41.4193 30.831C38.9894 31.1383 36.4809 29.4945 35.8949 28.2724C35.7663 28.008 35.4518 27.9008 35.1874 28.0223C34.9229 28.1509 34.8157 28.4654 34.9372 28.7298C35.4589 29.8161 36.9955 31.0811 38.8679 31.6385C38.2676 35.4049 36.3666 39.064 34.9587 41.7726C34.244 43.1448 33.6866 44.2239 33.4793 44.9743C33.3292 45.5175 33.1505 46.2965 32.979 47.2113C32.979 47.2184 32.979 47.2184 32.979 47.2255C32.8361 48.2261 32.2858 52.214 32.2358 53.286C32.0071 53.2288 31.7784 53.1788 31.5497 53.1287C31.6212 52.7786 31.6855 52.3355 31.6855 51.7566C31.6926 50.656 31.0637 49.4768 30.4062 48.2332C29.6129 46.7324 28.7196 45.0458 28.8268 43.302ZM27.3831 45.9177L27.8405 44.5455C28.0764 46.0678 28.8125 47.4614 29.4771 48.7192C30.0775 49.8484 30.6421 50.9061 30.6349 51.7494C30.6349 52.2568 30.5777 52.6428 30.5134 52.9358C29.6558 52.8071 28.7839 52.7357 27.912 52.7285C26.84 50.6345 26.6399 48.1689 27.3831 45.9177ZM29.763 65.3496C27.4761 64.5635 26.0253 62.4409 25.9609 60.1611C27.7834 60.204 29.5915 60.5256 31.3353 61.1259C33.0148 61.7048 34.5799 62.5267 36.0021 63.563C34.5513 65.3568 32.0714 66.1501 29.763 65.3496ZM31.6855 60.1325C29.8488 59.4965 27.9549 59.1606 26.0324 59.1105C26.0824 58.7961 26.1611 58.4745 26.2683 58.1672L26.6756 56.9737C28.6338 56.9737 30.5706 57.3024 32.4359 57.9456C34.2226 58.5602 35.8806 59.4536 37.3743 60.5899L36.9526 61.862C36.8526 62.1551 36.7311 62.4266 36.5881 62.6911C35.0945 61.5976 33.4436 60.74 31.6855 60.1325Z" fill="#F2EEE6"/>
</g>
<defs>
<filter id="filter0_d_52_9" x="0.653465" y="0.653465" width="89.3861" height="89.3861" filterUnits="userSpaceOnUse" color-interpolation-filters="sRGB">
<feFlood flood-opacity="0" result="BackgroundImageFix"/>
<feColorMatrix in="SourceAlpha" type="matrix" values="0 0 0 0 0 0 0 0 0 0 0 0 0 0 0 0 0 0 127 0" result="hardAlpha"/>
<feOffset dx="2.34653" dy="2.34653"/>
<feGaussianBlur stdDeviation="2.34653"/>
<feComposite in2="hardAlpha" operator="out"/>
<feColorMatrix type="matrix" values="0 0 0 0 0 0 0 0 0 0 0 0 0 0 0 0 0 0 0.25 0"/>
<feBlend mode="normal" in2="BackgroundImageFix" result="effect1_dropShadow_52_9"/>
<feBlend mode="normal" in="SourceGraphic" in2="effect1_dropShadow_52_9" result="shape"/>
</filter>
</defs>
</svg>
