<svg width="1119" height="440" viewBox="0 0 1119 440" fill="none" xmlns="http://www.w3.org/2000/svg">
<path d="M201.275 70.4762C202.047 70.4762 202.696 70.4203 203.166 70.3084C205.897 69.6706 207.967 67.5333 208.862 64.4336C210.149 59.9464 208.951 52.9415 203.401 47.3689C201.644 45.6008 198.78 45.6008 197.012 47.3689C195.244 49.1369 195.244 51.9903 197.012 53.7584C199.955 56.7013 200.514 60.0471 200.29 61.5466H200.257C194.27 61.5466 181.849 56.4999 180.708 54.4521C179.499 52.2701 176.747 51.4756 174.565 52.6953C172.382 53.9038 171.599 56.6566 172.808 58.8386C176.937 66.2688 194.427 70.4874 201.286 70.4874L201.275 70.4762Z" fill="#F2EEE6"/>
<path d="M0 420.489C0 430.94 69.7697 439.422 155.832 439.422C241.894 439.422 311.664 430.952 311.664 420.489C311.664 410.026 241.894 401.556 155.832 401.556C136.865 401.556 118.692 401.97 101.885 402.719C103.105 401.265 104.257 399.743 105.332 398.165C105.332 398.165 105.354 398.154 105.354 398.143C105.399 398.087 105.421 398.031 105.455 397.975C108.196 393.913 110.468 389.448 112.135 384.603L124.343 347.866C147.943 338.656 165.97 319.768 173.982 295.664L212.856 198.513C213.696 196.409 212.856 194.003 210.876 192.895C208.906 191.788 206.411 192.314 205.046 194.126C189.055 215.443 150.416 260.595 118.413 278.51C124.422 264.444 130.845 242.78 130.822 225.425C130.789 206.928 135.679 172.552 148.939 147.509C152.621 153.619 157.119 158.911 162.423 161.373C164.515 162.347 166.653 162.828 168.779 162.828C170.547 162.828 172.304 162.492 174.005 161.821C175.952 161.396 177.563 160.064 178.492 158.072C181.457 151.772 177.239 133.779 172.091 119.545C175.034 119.881 177.955 119.981 180.819 119.847C184.434 131.015 192.267 150.62 204.095 156.103C206.187 157.076 208.324 157.557 210.45 157.557C212.218 157.557 213.975 157.222 215.676 156.55C217.265 156.203 218.63 155.263 219.593 153.831C223.912 147.419 218.429 128.139 215.508 119.153C215.967 115.17 215.587 110.593 215.217 106.262C214.871 102.178 214.233 94.5912 215.385 93.2261C222.883 88.9962 228.343 80.6485 232.45 67.1086C241.861 67.2988 252.301 65.6762 256.039 62.5207C256.274 62.3192 256.497 62.1066 256.688 61.8828C256.799 61.7597 256.889 61.6255 256.99 61.4912C257.068 61.3905 257.158 61.2898 257.225 61.1891C257.359 60.9876 257.471 60.775 257.572 60.5736C257.594 60.5288 257.628 60.4841 257.639 60.4393C257.762 60.182 257.851 59.9246 257.93 59.656C257.93 59.656 257.93 59.6448 257.93 59.6336C258.277 58.4923 258.277 57.239 257.896 55.9745C255.703 48.5891 236.422 37.8131 228.589 35.0828C228.388 34.803 228.175 34.5121 227.963 34.2211C227.873 34.098 227.795 33.9861 227.705 33.8631C227.448 33.5162 227.168 33.1693 226.877 32.8224C226.799 32.7329 226.743 32.6433 226.665 32.5538C226.318 32.1398 225.96 31.7258 225.579 31.3005C225.557 31.267 225.535 31.2446 225.501 31.211C197.75 0.136376 102.198 -39.342 59.5085 97.0418C57.2816 104.17 55.066 111.186 52.9064 118.057C46.4497 138.557 40.5638 157.266 35.864 173.279L13.0475 242.288C6.08736 263.325 7.70992 286.366 17.4005 306.205L8.37012 332.826C7.95609 333.442 7.70992 334.169 7.65396 334.941L3.53604 347.083C1.80159 352.096 0.828061 357.176 0.51474 362.223C0.51474 362.346 0.48117 362.458 0.48117 362.57C0.48117 362.603 0.48117 362.625 0.48117 362.659C-0.53712 381.234 7.59802 399.239 22.0331 410.765C22.0331 410.765 0 416.931 0 420.478V420.489ZM110.222 361.73C97.3419 352.319 83.1194 344.878 67.8674 339.608C51.8657 334.08 35.3269 331.126 18.5866 330.79L24.7971 312.494H24.853C41.6604 312.494 58.2887 315.303 74.3464 320.853C89.5536 326.112 103.675 333.632 116.365 343.233L110.222 361.73ZM166.686 251.52C176.713 241.628 185.967 231.411 193.464 222.683L165.545 292.442C165.511 292.531 165.478 292.61 165.444 292.699C161.964 303.218 156.336 312.606 149.062 320.45C141.14 321.301 129.603 321.838 119.039 319.701C122.866 317.765 126.447 315.37 129.759 312.517C137.134 306.183 142.639 297.958 145.672 288.727C146.041 287.585 145.75 286.343 144.911 285.493C144.071 284.642 142.818 284.34 141.677 284.698C136.899 286.22 131.113 287.115 125.395 287.216C124.03 287.25 122.698 287.216 121.389 287.16C134.683 280.043 149.801 268.159 166.675 251.531L166.686 251.52ZM125.518 293.583C129.591 293.516 133.598 293.091 137.369 292.352C134.571 298.205 130.576 303.43 125.608 307.683C120.561 312.035 114.787 315.191 108.465 317.071C107.446 317.373 106.641 318.168 106.327 319.175C106.014 320.193 106.227 321.29 106.887 322.118L106.976 322.23C107.323 322.655 107.782 322.99 108.297 323.192C121.703 328.429 139.26 327.511 141.721 327.388C136.529 331.663 130.722 335.232 124.433 338.03C110.322 326.885 94.4549 318.224 77.3006 312.293C75.5885 311.7 73.8652 311.151 72.1532 310.614C72.4217 303.386 73.026 295.978 73.8317 288.771C77.5468 290.64 81.4073 292.274 85.3798 293.594C86.4764 293.964 88.8263 294.49 88.8822 294.501C94.9808 295.687 101.818 294.982 109.371 292.431C109.573 292.363 110.412 292.072 110.658 291.994C115.123 293.102 120.192 293.639 125.53 293.561L125.518 293.583ZM75.0066 279.215C75.443 275.981 75.913 272.814 76.4054 269.782C76.5956 270.073 76.7858 270.364 76.9761 270.644C79.919 275.086 82.5823 279.126 84.037 283.512C80.9261 282.281 77.916 280.827 75.0178 279.204L75.0066 279.215ZM121.792 225.458C121.826 246.742 110.882 275.657 105.477 284.295C101.381 285.582 97.4985 286.209 93.8954 286.041C92.7316 278.096 88.5689 271.785 84.5181 265.664C82.5263 262.654 80.4897 259.532 78.8112 256.231C80.2435 248.823 81.6199 242.892 82.5934 239.368C84.1153 233.873 88.9717 224.518 94.5891 213.686C106.842 190.076 123.415 158.139 128.887 124.648C132.244 125.118 135.679 125.297 139.148 125.118C140.323 128.754 141.945 133.275 144.004 137.908C127.678 164.797 121.758 204.679 121.792 225.436V225.458ZM212.174 148.203C210.775 148.706 209.443 148.605 207.899 147.889C203.031 145.64 197.616 137.818 193.028 126.841C196.295 129.101 199.742 130.276 203.289 130.276C205.023 130.276 206.78 129.996 208.548 129.426C208.738 129.359 208.906 129.269 209.096 129.202C211.659 138.624 212.532 145.562 212.174 148.191V148.203ZM33.9617 222.459C34.1407 207.7 46.8302 167.416 61.5227 120.776C63.6823 113.905 65.898 106.878 68.1471 99.6827C110.434 -35.4366 206.019 12.5573 222.939 43.1396C222.939 43.1396 225.009 43.1172 228.019 44.46C229.238 45.0083 230.682 45.7245 232.237 46.5637C237.743 49.585 244.211 53.9827 247.4 56.7242C243.159 57.7873 235.583 58.3468 229.664 58.0335C229.462 58.0111 229.261 57.9887 229.059 57.9887C225.837 57.7761 223.174 57.3061 221.943 56.4781C219.872 55.0905 217.064 55.6388 215.676 57.709C214.289 59.7791 214.837 62.5878 216.907 63.9754C218.373 64.9601 220.6 65.6986 223.274 66.2134C220.007 76.3403 216.045 82.4725 210.965 85.3483C204.699 88.8731 205.449 97.6797 206.232 107.012C206.478 109.955 206.926 115.203 206.579 118.37C206.478 118.706 206.433 119.064 206.422 119.422C206.277 120.104 206.075 120.608 205.784 120.843C196.329 123.887 188.753 107.672 186.661 102.626C180.394 87.5639 167.884 88.1794 164.202 88.7165C161.729 89.0857 160.028 91.3797 160.398 93.8415C160.767 96.3145 163.05 98.0154 165.534 97.6461C168.801 97.1649 174.81 97.6125 178.324 106.083C179.018 107.739 179.734 109.295 180.472 110.794C176.478 111.007 172.348 110.649 168.141 109.731C166.753 106.699 165.399 104.215 164.225 102.57C155.966 91.0888 132.188 84.8447 129.502 84.1621C127.096 83.5691 124.623 85.0238 124.019 87.4408C123.415 89.8579 124.88 92.3197 127.298 92.9239C133.698 94.5353 151.502 100.354 156.895 107.851C158.305 109.81 161.024 115.617 161.203 116.031C166.541 128.553 171.42 148.079 170.536 153.484C169.137 153.999 167.794 153.898 166.239 153.182C159.603 150.105 151.949 136.71 146.735 119.03L145.649 115.338L141.833 115.819C120.986 118.482 99.5351 104.371 94.4996 93.8863C93.4142 91.6371 90.7286 90.6971 88.4682 91.7713C86.219 92.8568 85.2679 95.5536 86.3533 97.8028C90.8181 107.09 103.966 117.956 120.058 122.734C114.888 154.973 98.6064 186.36 86.5771 209.535C80.4785 221.284 75.6668 230.561 73.8876 236.962C72.6008 241.594 71.0901 248.275 69.613 256.13C69.613 256.164 69.6018 256.197 69.5907 256.231C68.3486 264.78 63.6376 298.999 63.2124 308.152C61.2653 307.671 59.307 307.224 57.3376 306.821C57.9754 303.844 58.4902 300.017 58.5014 295.094C58.5349 285.649 53.1861 275.567 47.5128 264.892C40.7428 252.124 33.0553 237.655 33.9617 222.694V222.459ZM21.6191 245.13L25.5132 233.37C27.505 246.406 33.8162 258.335 39.5343 269.122C44.6593 278.768 49.4934 287.887 49.471 295.06C49.4598 299.424 49.001 302.737 48.4415 305.243C41.0673 304.146 33.6372 303.553 26.1622 303.497C16.9417 285.504 15.252 264.388 21.6191 245.142V245.13ZM42.0185 411.615C22.4472 404.857 9.9703 386.718 9.43318 367.135C25.0432 367.504 40.5526 370.246 55.5024 375.416C69.8928 380.384 83.3096 387.423 95.4731 396.307C83.0075 411.682 61.78 418.441 42.0185 411.615ZM58.4566 366.878C42.7458 361.451 26.4756 358.564 10.0374 358.116C10.4738 355.408 11.1341 352.689 12.0628 350.003L15.5317 339.787C32.2832 339.809 48.9003 342.607 64.9132 348.134C80.2435 353.427 94.4437 361.059 107.211 370.761L103.586 381.66C102.724 384.144 101.684 386.505 100.475 388.754C87.6737 379.455 73.5631 372.081 58.4454 366.855L58.4566 366.878Z" fill="#F2EEE6"/>
<path d="M330.61 119.769V191.497H311.967V119.769H330.61Z" fill="#F2EEE6"/>
<path d="M364.672 191.508V119.78H383.314L417.757 163.633V119.78H436.31V191.508H417.757L383.314 147.654V191.508H364.672Z" fill="#F2EEE6"/>
<path d="M470.372 191.508V119.78H489.015L523.458 163.633V119.78H542.011V191.508H523.458L489.015 147.654V191.508H470.372Z" fill="#F2EEE6"/>
<path d="M573.69 155.644C573.69 150.318 574.675 145.349 576.644 140.75C578.614 136.151 581.333 132.145 584.824 128.721C588.315 125.297 592.478 122.611 597.335 120.687C602.191 118.751 607.529 117.788 613.37 117.788C619.211 117.788 624.47 118.762 629.349 120.687C634.228 122.622 638.436 125.297 641.96 128.721C645.485 132.145 648.227 136.162 650.185 140.75C652.154 145.349 653.139 150.307 653.139 155.644C653.139 160.982 652.154 165.939 650.185 170.527C648.216 175.126 645.474 179.143 641.96 182.567C638.447 185.992 634.239 188.677 629.349 190.602C624.459 192.538 619.133 193.5 613.37 193.5C607.607 193.5 602.191 192.526 597.335 190.602C592.478 188.666 588.315 185.992 584.824 182.567C581.333 179.143 578.614 175.126 576.644 170.527C574.675 165.928 573.69 160.971 573.69 155.644ZM593.194 155.644C593.194 158.498 593.731 161.127 594.817 163.544C595.891 165.95 597.357 168.043 599.192 169.822C601.027 171.601 603.176 172.978 605.615 173.962C608.055 174.947 610.64 175.439 613.37 175.439C616.1 175.439 618.685 174.947 621.125 173.962C623.564 172.978 625.724 171.601 627.592 169.822C629.461 168.043 630.938 165.95 632.012 163.544C633.087 161.139 633.635 158.498 633.635 155.644C633.635 152.791 633.098 150.161 632.012 147.744C630.938 145.338 629.461 143.246 627.592 141.466C625.724 139.687 623.564 138.311 621.125 137.326C618.685 136.341 616.1 135.849 613.37 135.849C610.64 135.849 608.055 136.341 605.615 137.326C603.176 138.311 601.038 139.687 599.192 141.466C597.357 143.246 595.891 145.338 594.817 147.744C593.743 150.15 593.194 152.791 593.194 155.644Z" fill="#F2EEE6"/>
<path d="M693.367 119.769L710.678 163.432L728.089 119.769H748.354L718.097 191.497H703.259L673.102 119.769H693.367Z" fill="#F2EEE6"/>
<path d="M813.144 179.042H786.501L782.215 191.508H762.331L789.634 119.78H809.989L837.293 191.508H817.408L813.122 179.042H813.144ZM808.198 164.864L799.828 140.985L791.458 164.864H808.198Z" fill="#F2EEE6"/>
<path d="M888.588 135.569V191.508H869.946V135.569H854.626V119.78H903.907V135.569H888.588Z" fill="#F2EEE6"/>
<path d="M949.853 119.769V191.497H931.211V119.769H949.853Z" fill="#F2EEE6"/>
<path d="M996.661 119.769L1013.97 163.432L1031.38 119.769H1051.65L1021.39 191.497H1006.55L976.396 119.769H996.661Z" fill="#F2EEE6"/>
<path d="M1119 135.569H1096.83V147.554H1117.76V163.343H1096.83V175.708H1119V191.497H1078.19V119.769H1119V135.569Z" fill="#F2EEE6"/>
<path d="M372.336 253.982H330.206V283.031H370.848V300.185H330.206V357.736H311.955V236.828H372.325V253.982H372.336Z" fill="#F2EEE6"/>
<path d="M419.681 296.739C419.681 279.719 425.914 265.105 438.391 252.885C450.812 240.666 465.751 234.567 483.185 234.567C500.619 234.567 515.188 240.722 527.508 253.042C539.885 265.362 546.061 280.166 546.061 297.444C546.061 314.721 539.851 329.57 527.43 341.689C514.953 353.853 499.891 359.94 482.245 359.94C466.635 359.94 452.614 354.535 440.193 343.726C426.519 331.775 419.681 316.109 419.681 296.739ZM438.089 296.974C438.089 310.335 442.576 321.323 451.562 329.939C460.491 338.556 470.797 342.864 482.491 342.864C495.18 342.864 505.878 338.477 514.595 329.704C523.312 320.831 527.676 310.021 527.676 297.287C527.676 284.553 523.368 273.587 514.752 264.87C506.191 256.097 495.594 251.71 482.961 251.71C470.327 251.71 459.753 256.097 451.092 264.87C442.431 273.531 438.089 284.24 438.089 296.974Z" fill="#F2EEE6"/>
<path d="M622.545 294.546L589.266 236.828H610.024L633.12 277.783L657.391 236.828H678.305L643.459 294.546L680.028 357.736H659.595L632.818 311.454L605.257 357.736H584.589L622.568 294.546H622.545Z" fill="#F2EEE6"/>
<path d="M795.106 253.982H746.631V283.031H793.697V300.185H746.631V340.592H795.106V357.746H728.392V236.838H795.106V253.993V253.982Z" fill="#F2EEE6"/>
<path d="M926.477 254.843L911.672 263.616C908.909 258.816 906.268 255.683 903.761 254.217C901.154 252.549 897.786 251.71 893.657 251.71C888.588 251.71 884.391 253.142 881.045 256.018C877.711 258.838 876.032 262.385 876.032 266.671C876.032 272.568 880.419 277.324 889.192 280.927L901.255 285.862C911.068 289.835 918.241 294.669 922.784 300.387C927.327 306.105 929.599 313.11 929.599 321.413C929.599 332.536 925.895 341.723 918.476 348.974C911.012 356.281 901.747 359.94 890.68 359.94C880.184 359.94 871.523 356.829 864.686 350.619C857.949 344.408 853.753 335.669 852.075 324.389L870.549 320.316C871.377 327.411 872.843 332.323 874.936 335.042C878.695 340.268 884.179 342.875 891.374 342.875C897.058 342.875 901.792 340.973 905.552 337.157C909.311 333.341 911.191 328.518 911.191 322.666C911.191 320.316 910.867 318.168 910.218 316.209C909.569 314.251 908.55 312.449 907.163 310.805C905.775 309.16 903.996 307.627 901.803 306.183C899.61 304.751 897.002 303.374 893.97 302.076L882.299 297.22C865.749 290.226 857.479 279.987 857.479 266.526C857.479 257.439 860.948 249.841 867.897 243.743C874.846 237.588 883.485 234.5 893.813 234.5C907.756 234.5 918.633 241.292 926.466 254.866L926.477 254.843Z" fill="#F2EEE6"/>
</svg>
