<svg width="90" height="90" viewBox="0 0 90 90" fill="none" xmlns="http://www.w3.org/2000/svg">
<g filter="url(#filter0_d_240_209)">
<circle cx="48.6929" cy="42.3466" r="40" fill="#F2EEE6"/>
<path d="M54.0446 24.8817C54.1375 24.8817 54.2089 24.8746 54.2661 24.8603C54.5877 24.7888 54.8236 24.5387 54.9308 24.1742C55.0808 23.6525 54.9379 22.8306 54.2947 22.1803C54.0875 21.973 53.7587 21.973 53.5514 22.1803C53.3442 22.3875 53.3442 22.7163 53.5514 22.9235C53.8945 23.2666 53.9588 23.6597 53.9374 23.8312H53.9302C53.2298 23.8312 51.7791 23.2451 51.6504 23.0022C51.5075 22.7449 51.1859 22.652 50.9357 22.7949C50.6785 22.9378 50.5927 23.2594 50.7285 23.5096C51.2073 24.3886 53.2441 24.8817 54.0446 24.8817Z" fill="#01203F"/>
<path d="M30.5532 65.7324C30.5532 66.9545 38.6933 67.9408 48.7416 67.9408C58.7899 67.9408 66.93 66.9545 66.93 65.7324C66.93 64.5104 58.7899 63.5241 48.7416 63.5241C46.5261 63.5241 44.4036 63.5741 42.4454 63.6599C42.5883 63.4884 42.7241 63.3097 42.8456 63.131C42.8527 63.1239 42.8527 63.1167 42.8599 63.1096C43.1815 62.6379 43.4459 62.1162 43.6389 61.5516L45.0611 57.2636C47.8126 56.1916 49.9208 53.9832 50.8571 51.1674L55.3952 39.8256C55.4953 39.5826 55.3952 39.2967 55.1665 39.1681C54.9378 39.0394 54.6448 39.0966 54.4876 39.311C52.6223 41.7981 48.1127 47.0723 44.375 49.1592C45.0754 47.5154 45.8258 44.9855 45.8258 42.963C45.8186 40.8047 46.3904 36.7882 47.9412 33.8652C48.37 34.5799 48.8989 35.1945 49.5135 35.4804C49.7565 35.5947 50.0066 35.6519 50.2567 35.6519C50.464 35.6519 50.6712 35.6162 50.8642 35.5375C51.0929 35.4875 51.2787 35.3303 51.3859 35.1016C51.729 34.3655 51.243 32.2643 50.6355 30.6063C50.9786 30.642 51.3216 30.6563 51.6575 30.642C52.0792 31.9427 52.9939 34.2368 54.3732 34.8729C54.6162 34.9872 54.8664 35.0444 55.1165 35.0444C55.3238 35.0444 55.531 35.0087 55.724 34.9301C55.9098 34.8872 56.067 34.78 56.1814 34.6156C56.6888 33.8652 56.0456 31.614 55.7025 30.5706C55.7526 30.106 55.7097 29.57 55.6668 29.0626C55.6239 28.5838 55.5525 27.6976 55.6882 27.5404C56.5601 27.0472 57.2034 26.0753 57.6822 24.4887C58.7828 24.5101 59.9977 24.3243 60.4337 23.9527C60.4623 23.9313 60.4837 23.9027 60.5123 23.8812C60.5266 23.8669 60.5337 23.8526 60.548 23.8384C60.5552 23.8241 60.5695 23.8169 60.5766 23.8026C60.5909 23.7812 60.6052 23.7526 60.6195 23.7312C60.6195 23.724 60.6266 23.724 60.6266 23.7169C60.6409 23.6883 60.6481 23.6597 60.6624 23.624C60.7052 23.4882 60.7052 23.3452 60.6552 23.1951C60.3979 22.3304 58.1467 21.0726 57.2319 20.7581C57.2105 20.7224 57.1819 20.6938 57.1605 20.6581C57.1533 20.6438 57.139 20.6295 57.1319 20.6152C57.1033 20.5723 57.0676 20.5366 57.0318 20.4937C57.0247 20.4865 57.0175 20.4722 57.0104 20.4651C56.9675 20.4151 56.9246 20.365 56.8817 20.3222C56.8817 20.315 56.8746 20.315 56.8746 20.315C53.6371 16.6702 42.4811 12.0606 37.4998 27.9835C37.2426 28.8125 36.9781 29.6343 36.728 30.4348C35.9776 32.8289 35.2844 35.0087 34.7412 36.8811L32.0755 44.9355C31.2607 47.394 31.4537 50.0811 32.5829 52.3967L31.5323 55.4983C31.4823 55.5698 31.4537 55.6556 31.4466 55.7485L30.9677 57.1635C30.7676 57.7495 30.6533 58.3427 30.6175 58.9288C30.6175 58.9431 30.6104 58.9573 30.6104 58.9716C30.6104 58.9788 30.6104 58.9788 30.6104 58.9788C30.4889 61.1442 31.4394 63.2454 33.126 64.5961C33.126 64.5961 30.5532 65.3179 30.5532 65.7324ZM43.4173 58.8787C41.9165 57.7781 40.2513 56.9134 38.4718 56.2988C36.6065 55.6556 34.6769 55.3054 32.7187 55.2696L33.4405 53.1328H33.4476C35.4058 53.1328 37.3498 53.4615 39.2222 54.1119C40.9946 54.7265 42.6455 55.6055 44.1248 56.7276C44.132 56.7133 43.4173 58.8787 43.4173 58.8787ZM50.0066 46.0146C51.1787 44.8569 52.2578 43.6705 53.1297 42.6485L49.8708 50.7886C49.8637 50.7958 49.8637 50.8101 49.8565 50.8172C49.4492 52.0465 48.7917 53.1399 47.9412 54.0547C47.0193 54.1547 45.6685 54.2191 44.4393 53.9689C44.8895 53.7402 45.3041 53.4615 45.69 53.1328C46.5476 52.3967 47.1908 51.4318 47.5481 50.3527C47.591 50.2169 47.5553 50.074 47.4624 49.9739C47.3623 49.8739 47.2194 49.8381 47.0836 49.881C46.5261 50.0597 45.8472 50.1597 45.1826 50.174C45.0253 50.1812 44.8681 50.174 44.718 50.1669C46.276 49.3379 48.0413 47.9514 50.0066 46.0146ZM45.204 50.9244C45.6828 50.9173 46.1474 50.8673 46.5905 50.7815C46.2617 51.4676 45.7972 52.0751 45.2183 52.5682C44.6323 53.0756 43.9533 53.4472 43.2172 53.6616C43.0957 53.6974 43.0028 53.7903 42.9671 53.9046C42.9313 54.0261 42.9528 54.1547 43.0314 54.2477L43.0385 54.262C43.0814 54.312 43.1315 54.3477 43.1958 54.3763C44.7609 54.9909 46.812 54.8837 47.0979 54.8694C46.4904 55.3697 45.8115 55.7842 45.0825 56.1129C43.4388 54.8122 41.5806 53.8046 39.5795 53.1113C39.3794 53.0399 39.1793 52.9755 38.9792 52.9184C39.0078 52.0751 39.0793 51.2103 39.1722 50.367C39.6081 50.5885 40.0584 50.7743 40.5229 50.9316C40.6515 50.9745 40.9231 51.0388 40.9303 51.0388C41.6449 51.1746 42.4382 51.096 43.3244 50.7958C43.3459 50.7886 43.4459 50.7529 43.4745 50.7458C43.9891 50.8673 44.5822 50.9244 45.204 50.9244ZM39.308 49.245C39.358 48.8662 39.4152 48.4945 39.4723 48.1444C39.4938 48.1801 39.5152 48.2158 39.5367 48.2444C39.8797 48.7661 40.1942 49.2378 40.3585 49.7452C40.0012 49.6023 39.651 49.4308 39.308 49.245ZM44.7681 42.9701C44.7752 45.4572 43.4959 48.8304 42.867 49.8381C42.3882 49.9882 41.938 50.0597 41.5163 50.0454C41.3805 49.1163 40.8945 48.3802 40.4228 47.6655C40.187 47.3153 39.9512 46.9509 39.7582 46.5649C39.9226 45.7002 40.087 45.0069 40.2013 44.5996C40.38 43.9564 40.9446 42.8629 41.6021 41.6051C43.0314 38.8465 44.9682 35.123 45.6042 31.2138C45.9973 31.2709 46.3975 31.2924 46.8049 31.2709C46.9407 31.6926 47.1336 32.2215 47.3695 32.7646C45.4541 35.8877 44.7681 40.5474 44.7681 42.9701ZM55.3166 33.951C55.1522 34.0081 54.995 34.001 54.8163 33.9152C54.2518 33.6508 53.6157 32.7432 53.0797 31.4568C53.4585 31.7212 53.8658 31.857 54.2803 31.857C54.4805 31.857 54.6877 31.8212 54.895 31.7569C54.9164 31.7498 54.9378 31.7355 54.9593 31.7283C55.2594 32.8361 55.3595 33.6437 55.3166 33.951ZM34.5197 42.6485V42.6199C34.5411 40.8976 36.0205 36.195 37.7357 30.7492C37.9858 29.9488 38.2431 29.1269 38.5075 28.2908C43.4459 12.5179 54.6019 18.121 56.5744 21.6872C56.5744 21.6872 56.8174 21.6872 57.1676 21.8444C57.3106 21.9087 57.4749 21.9945 57.6607 22.0874C58.3039 22.4376 59.0615 22.9522 59.4331 23.2738C58.94 23.3953 58.0538 23.4596 57.3606 23.4238C57.3391 23.4238 57.3106 23.4167 57.2891 23.4167C56.9103 23.3953 56.603 23.3381 56.4601 23.238C56.2171 23.0737 55.8884 23.138 55.7311 23.381C55.5668 23.624 55.6311 23.9527 55.8741 24.1099C56.0456 24.2243 56.3029 24.31 56.6173 24.3744C56.2385 25.5536 55.774 26.2754 55.1808 26.6113C54.4519 27.0258 54.5376 28.0478 54.6305 29.1412C54.6591 29.4843 54.7091 30.0989 54.6734 30.4634C54.6591 30.4991 54.6591 30.542 54.652 30.5849C54.6377 30.6635 54.6091 30.7206 54.5805 30.7492C53.4799 31.1066 52.5937 29.2127 52.3507 28.6195C51.6218 26.8614 50.1567 26.9329 49.7279 26.9972C49.442 27.0401 49.2419 27.3045 49.2848 27.5975C49.3277 27.8834 49.5921 28.0835 49.8851 28.0406C50.2639 27.9835 50.9714 28.0335 51.3788 29.0269C51.4574 29.2198 51.5431 29.3985 51.6289 29.5772C51.1644 29.5986 50.6784 29.5629 50.1924 29.4557C50.028 29.0983 49.8708 28.8125 49.735 28.6195C48.7702 27.2759 45.9973 26.5541 45.6828 26.4683C45.4041 26.3969 45.1111 26.5684 45.0396 26.8543C44.9682 27.133 45.1397 27.426 45.4256 27.4975C46.176 27.6833 48.2485 28.3622 48.8774 29.2413C49.0418 29.47 49.3562 30.1489 49.3777 30.1989C49.9995 31.664 50.5712 33.9367 50.464 34.5727C50.2996 34.6299 50.1424 34.6228 49.9637 34.537C49.1919 34.1797 48.2985 32.6145 47.6839 30.5491L47.5553 30.1203L47.1122 30.1775C44.6823 30.4848 42.1738 28.8411 41.5878 27.619C41.4591 27.3545 41.1447 27.2473 40.8802 27.3688C40.6158 27.4975 40.5086 27.8119 40.6301 28.0764C41.1518 29.1627 42.6884 30.4276 44.5608 30.9851C43.9605 34.7514 42.0594 38.4105 40.6515 41.1191C39.9369 42.4913 39.3794 43.5705 39.1722 44.3209C39.0221 44.864 38.8434 45.643 38.6719 46.5578C38.6719 46.5649 38.6719 46.5649 38.6719 46.5721C38.529 47.5726 37.9787 51.5605 37.9286 52.6325C37.6999 52.5753 37.4713 52.5253 37.2426 52.4753C37.314 52.1251 37.3783 51.682 37.3783 51.1031C37.3855 50.0025 36.7566 48.8233 36.0991 47.5798C35.3058 46.079 34.4125 44.3923 34.5197 42.6485ZM33.076 45.2642L33.5334 43.8921C33.7692 45.4143 34.5054 46.8079 35.17 48.0657C35.7703 49.1949 36.3349 50.2526 36.3278 51.096C36.3278 51.6034 36.2706 51.9893 36.2063 52.2823C35.3487 52.1537 34.4768 52.0822 33.6049 52.0751C32.5329 49.9811 32.3328 47.5154 33.076 45.2642ZM35.4559 64.6962C33.1689 63.91 31.7181 61.7874 31.6538 59.5076C33.4762 59.5505 35.2844 59.8721 37.0282 60.4725C38.7076 61.0513 40.2728 61.8732 41.695 62.9095C40.2442 64.7033 37.7643 65.4966 35.4559 64.6962ZM37.3783 59.4791C35.5416 58.843 33.6478 58.5071 31.7253 58.4571C31.7753 58.1426 31.8539 57.821 31.9611 57.5137L32.3685 56.3202C34.3267 56.3202 36.2635 56.649 38.1287 57.2922C39.9154 57.9068 41.5735 58.8001 43.0671 59.9364L42.6455 61.2086C42.5454 61.5016 42.4239 61.7732 42.281 62.0376C40.7873 60.9441 39.1364 60.0865 37.3783 59.4791Z" fill="#01203F"/>
</g>
<defs>
<filter id="filter0_d_240_209" x="-0.000198364" y="2.28882e-05" width="89.3861" height="89.3861" filterUnits="userSpaceOnUse" color-interpolation-filters="sRGB">
<feFlood flood-opacity="0" result="BackgroundImageFix"/>
<feColorMatrix in="SourceAlpha" type="matrix" values="0 0 0 0 0 0 0 0 0 0 0 0 0 0 0 0 0 0 127 0" result="hardAlpha"/>
<feOffset dx="-4" dy="2.34653"/>
<feGaussianBlur stdDeviation="2.34653"/>
<feComposite in2="hardAlpha" operator="out"/>
<feColorMatrix type="matrix" values="0 0 0 0 0 0 0 0 0 0 0 0 0 0 0 0 0 0 0.25 0"/>
<feBlend mode="normal" in2="BackgroundImageFix" result="effect1_dropShadow_240_209"/>
<feBlend mode="normal" in="SourceGraphic" in2="effect1_dropShadow_240_209" result="shape"/>
</filter>
</defs>
</svg>
