<svg width="90" height="91" viewBox="0 0 90 91" fill="none" xmlns="http://www.w3.org/2000/svg">
<g filter="url(#filter0_d_52_9)">
<circle cx="49" cy="43" r="40" fill="#01203F"/>
<path d="M54.3517 25.5352C54.4446 25.5352 54.5161 25.5281 54.5732 25.5138C54.8948 25.4423 55.1307 25.1922 55.2379 24.8277C55.388 24.306 55.245 23.4841 54.6018 22.8338C54.3946 22.6265 54.0658 22.6265 53.8586 22.8338C53.6513 23.041 53.6513 23.3698 53.8586 23.577C54.2016 23.9201 54.2659 24.3131 54.2445 24.4847H54.2374C53.537 24.4847 52.0862 23.8986 51.9575 23.6556C51.8146 23.3984 51.493 23.3055 51.2429 23.4484C50.9856 23.5913 50.8998 23.9129 51.0356 24.1631C51.5144 25.0421 53.5513 25.5352 54.3517 25.5352Z" fill="#F2EEE6"/>
<path d="M30.8604 66.3859C30.8604 67.608 39.0005 68.5942 49.0488 68.5942C59.0971 68.5942 67.2372 67.608 67.2372 66.3859C67.2372 65.1638 59.0971 64.1776 49.0488 64.1776C46.8333 64.1776 44.7107 64.2276 42.7525 64.3134C42.8954 64.1418 43.0312 63.9632 43.1527 63.7845C43.1599 63.7774 43.1599 63.7702 43.167 63.7631C43.4886 63.2914 43.753 62.7697 43.946 62.2051L45.3682 57.917C48.1197 56.845 50.228 54.6367 51.1642 51.8209L55.7024 40.479C55.8024 40.2361 55.7024 39.9502 55.4737 39.8215C55.245 39.6929 54.952 39.7501 54.7947 39.9645C52.9294 42.4515 48.4198 47.7258 44.6821 49.8127C45.3825 48.1689 46.1329 45.639 46.1329 43.6165C46.1258 41.4581 46.6975 37.4417 48.2483 34.5187C48.6771 35.2333 49.206 35.848 49.8206 36.1338C50.0636 36.2482 50.3137 36.3054 50.5639 36.3054C50.7711 36.3054 50.9784 36.2696 51.1713 36.191C51.4 36.141 51.5858 35.9838 51.693 35.7551C52.0361 35.0189 51.5501 32.9178 50.9426 31.2598C51.2857 31.2955 51.6287 31.3098 51.9646 31.2955C52.3863 32.5962 53.3011 34.8903 54.6804 35.5264C54.9234 35.6407 55.1735 35.6979 55.4236 35.6979C55.6309 35.6979 55.8381 35.6622 56.0311 35.5835C56.2169 35.5407 56.3742 35.4335 56.4885 35.2691C56.9959 34.5187 56.3527 32.2675 56.0097 31.224C56.0597 30.7595 56.0168 30.2235 55.9739 29.7161C55.9311 29.2372 55.8596 28.3511 55.9954 28.1938C56.8673 27.7007 57.5105 26.7287 57.9893 25.1422C59.0899 25.1636 60.3048 24.9778 60.7408 24.6062C60.7694 24.5847 60.7908 24.5561 60.8194 24.5347C60.8337 24.5204 60.8409 24.5061 60.8551 24.4918C60.8623 24.4775 60.8766 24.4704 60.8837 24.4561C60.898 24.4347 60.9123 24.4061 60.9266 24.3846C60.9266 24.3775 60.9338 24.3775 60.9338 24.3703C60.9481 24.3417 60.9552 24.3132 60.9695 24.2774C61.0124 24.1416 61.0124 23.9987 60.9623 23.8486C60.7051 22.9839 58.4538 21.726 57.5391 21.4116C57.5176 21.3759 57.489 21.3473 57.4676 21.3115C57.4605 21.2972 57.4462 21.2829 57.439 21.2687C57.4104 21.2258 57.3747 21.19 57.339 21.1472C57.3318 21.14 57.3247 21.1257 57.3175 21.1186C57.2746 21.0685 57.2318 21.0185 57.1889 20.9756C57.1889 20.9685 57.1817 20.9685 57.1817 20.9685C53.9443 17.3237 42.7882 12.714 37.807 28.6369C37.5497 29.4659 37.2853 30.2878 37.0351 31.0883C36.2847 33.4824 35.5915 35.6622 35.0483 37.5346L32.3826 45.589C31.5679 48.0474 31.7608 50.7346 32.89 53.0501L31.8395 56.1518C31.7894 56.2233 31.7608 56.309 31.7537 56.4019L31.2749 57.817C31.0748 58.403 30.9604 58.9962 30.9247 59.5822C30.9247 59.5965 30.9175 59.6108 30.9175 59.6251C30.9175 59.6323 30.9175 59.6323 30.9175 59.6323C30.796 61.7977 31.7465 63.8989 33.4332 65.2496C33.4332 65.2496 30.8604 65.9714 30.8604 66.3859ZM43.7245 59.5322C42.2236 58.4316 40.5585 57.5669 38.7789 56.9522C36.9136 56.309 34.984 55.9588 33.0258 55.9231L33.7476 53.7862H33.7548C35.713 53.7862 37.6569 54.115 39.5293 54.7653C41.3017 55.38 42.9526 56.259 44.432 57.381C44.4391 57.3667 43.7245 59.5322 43.7245 59.5322ZM50.3137 46.6681C51.4858 45.5103 52.5649 44.324 53.4368 43.302L50.1779 51.4421C50.1708 51.4493 50.1708 51.4636 50.1637 51.4707C49.7563 52.6999 49.0988 53.7934 48.2483 54.7082C47.3264 54.8082 45.9757 54.8725 44.7464 54.6224C45.1967 54.3937 45.6112 54.115 45.9971 53.7862C46.8547 53.0501 47.4979 52.0853 47.8553 51.0062C47.8981 50.8704 47.8624 50.7274 47.7695 50.6274C47.6694 50.5273 47.5265 50.4916 47.3907 50.5345C46.8333 50.7132 46.1543 50.8132 45.4897 50.8275C45.3325 50.8346 45.1752 50.8275 45.0252 50.8204C46.5831 49.9913 48.3484 48.6049 50.3137 46.6681ZM45.5111 51.5779C45.99 51.5708 46.4545 51.5207 46.8976 51.435C46.5688 52.1211 46.1043 52.7285 45.5254 53.2216C44.9394 53.7291 44.2605 54.1007 43.5243 54.3151C43.4029 54.3508 43.3099 54.4437 43.2742 54.5581C43.2385 54.6796 43.2599 54.8082 43.3385 54.9011L43.3457 54.9154C43.3886 54.9655 43.4386 55.0012 43.5029 55.0298C45.068 55.6444 47.1191 55.5372 47.405 55.5229C46.7975 56.0232 46.1186 56.4377 45.3896 56.7664C43.7459 55.4657 41.8877 54.458 39.8867 53.7648C39.6866 53.6933 39.4864 53.629 39.2863 53.5718C39.3149 52.7285 39.3864 51.8638 39.4793 51.0205C39.9152 51.242 40.3655 51.4278 40.83 51.585C40.9587 51.6279 41.2302 51.6923 41.2374 51.6923C41.9521 51.828 42.7454 51.7494 43.6315 51.4493C43.653 51.4421 43.753 51.4064 43.7816 51.3992C44.2962 51.5207 44.8894 51.5779 45.5111 51.5779ZM39.6151 49.8984C39.6651 49.5196 39.7223 49.148 39.7795 48.7978C39.8009 48.8336 39.8223 48.8693 39.8438 48.8979C40.1868 49.4196 40.5013 49.8913 40.6657 50.3987C40.3083 50.2558 39.9581 50.0842 39.6151 49.8984ZM45.0752 43.6236C45.0823 46.1107 43.8031 49.4839 43.1742 50.4916C42.6953 50.6417 42.2451 50.7132 41.8234 50.6989C41.6876 49.7698 41.2017 49.0337 40.73 48.319C40.4941 47.9688 40.2583 47.6043 40.0653 47.2184C40.2297 46.3536 40.3941 45.6604 40.5084 45.2531C40.6871 44.6098 41.2517 43.5164 41.9092 42.2586C43.3385 39.4999 45.2753 35.7765 45.9114 31.8672C46.3044 31.9244 46.7046 31.9459 47.112 31.9244C47.2478 32.3461 47.4407 32.8749 47.6766 33.4181C45.7613 36.5412 45.0752 41.2009 45.0752 43.6236ZM55.6237 34.6044C55.4594 34.6616 55.3021 34.6545 55.1235 34.5687C54.5589 34.3043 53.9228 33.3966 53.3868 32.1102C53.7656 32.3747 54.173 32.5104 54.5875 32.5104C54.7876 32.5104 54.9948 32.4747 55.2021 32.4104C55.2235 32.4032 55.245 32.389 55.2664 32.3818C55.5666 33.4895 55.6666 34.2971 55.6237 34.6044ZM34.8268 43.302V43.2734C34.8482 41.5511 36.3276 36.8485 38.0428 31.4027C38.2929 30.6023 38.5502 29.7804 38.8147 28.9442C43.753 13.1714 54.9091 18.7744 56.8816 22.3407C56.8816 22.3407 57.1246 22.3407 57.4747 22.4979C57.6177 22.5622 57.7821 22.648 57.9679 22.7409C58.6111 23.0911 59.3686 23.6056 59.7403 23.9272C59.2471 24.0487 58.3609 24.113 57.6677 24.0773C57.6463 24.0773 57.6177 24.0702 57.5962 24.0702C57.2175 24.0487 56.9102 23.9916 56.7672 23.8915C56.5242 23.7271 56.1955 23.7914 56.0383 24.0344C55.8739 24.2774 55.9382 24.6062 56.1812 24.7634C56.3527 24.8777 56.61 24.9635 56.9244 25.0278C56.5457 26.207 56.0811 26.9289 55.488 27.2648C54.759 27.6793 54.8448 28.7012 54.9377 29.7947C54.9662 30.1377 55.0163 30.7524 54.9805 31.1168C54.9662 31.1526 54.9662 31.1955 54.9591 31.2383C54.9448 31.3169 54.9162 31.3741 54.8876 31.4027C53.787 31.76 52.9008 29.8662 52.6579 29.273C51.9289 27.5149 50.4638 27.5864 50.035 27.6507C49.7491 27.6936 49.549 27.958 49.5919 28.251C49.6348 28.5369 49.8992 28.737 50.1922 28.6941C50.571 28.6369 51.2785 28.687 51.6859 29.6803C51.7645 29.8733 51.8503 30.052 51.936 30.2306C51.4715 30.2521 50.9855 30.2164 50.4995 30.1091C50.3352 29.7518 50.1779 29.4659 50.0422 29.273C49.0773 27.9294 46.3044 27.2076 45.99 27.1218C45.7112 27.0504 45.4182 27.2219 45.3468 27.5077C45.2753 27.7865 45.4468 28.0795 45.7327 28.1509C46.4831 28.3368 48.5556 29.0157 49.1845 29.8947C49.3489 30.1234 49.6634 30.8024 49.6848 30.8524C50.3066 32.3175 50.8783 34.5901 50.7711 35.2262C50.6067 35.2834 50.4495 35.2762 50.2709 35.1905C49.499 34.8331 48.6057 33.268 47.991 31.2026L47.8624 30.7738L47.4193 30.831C44.9894 31.1383 42.4809 29.4945 41.8949 28.2724C41.7663 28.008 41.4518 27.9008 41.1874 28.0223C40.9229 28.1509 40.8157 28.4654 40.9372 28.7298C41.4589 29.8161 42.9955 31.0811 44.8679 31.6385C44.2676 35.4049 42.3666 39.064 40.9587 41.7726C40.244 43.1448 39.6866 44.2239 39.4793 44.9743C39.3292 45.5175 39.1505 46.2965 38.979 47.2113C38.979 47.2184 38.979 47.2184 38.979 47.2255C38.8361 48.2261 38.2858 52.214 38.2358 53.286C38.0071 53.2288 37.7784 53.1788 37.5497 53.1287C37.6212 52.7786 37.6855 52.3355 37.6855 51.7566C37.6926 50.656 37.0637 49.4768 36.4062 48.2332C35.6129 46.7324 34.7196 45.0458 34.8268 43.302ZM33.3831 45.9177L33.8405 44.5455C34.0764 46.0678 34.8125 47.4614 35.4771 48.7192C36.0775 49.8484 36.6421 50.9061 36.6349 51.7494C36.6349 52.2568 36.5777 52.6428 36.5134 52.9358C35.6558 52.8071 34.7839 52.7357 33.912 52.7285C32.84 50.6345 32.6399 48.1689 33.3831 45.9177ZM35.763 65.3496C33.4761 64.5635 32.0253 62.4409 31.9609 60.1611C33.7834 60.204 35.5915 60.5256 37.3353 61.1259C39.0148 61.7048 40.5799 62.5267 42.0021 63.563C40.5513 65.3568 38.0714 66.1501 35.763 65.3496ZM37.6855 60.1325C35.8488 59.4965 33.9549 59.1606 32.0324 59.1105C32.0824 58.7961 32.1611 58.4745 32.2683 58.1672L32.6756 56.9737C34.6338 56.9737 36.5706 57.3024 38.4359 57.9456C40.2226 58.5602 41.8806 59.4536 43.3743 60.5899L42.9526 61.862C42.8526 62.1551 42.7311 62.4266 42.5881 62.6911C41.0945 61.5976 39.4436 60.74 37.6855 60.1325Z" fill="#F2EEE6"/>
</g>
<defs>
<filter id="filter0_d_52_9" x="0.306931" y="0.653465" width="89.3861" height="89.3861" filterUnits="userSpaceOnUse" color-interpolation-filters="sRGB">
<feFlood flood-opacity="0" result="BackgroundImageFix"/>
<feColorMatrix in="SourceAlpha" type="matrix" values="0 0 0 0 0 0 0 0 0 0 0 0 0 0 0 0 0 0 127 0" result="hardAlpha"/>
<feOffset dx="-4" dy="2.34653"/>
<feGaussianBlur stdDeviation="2.34653"/>
<feComposite in2="hardAlpha" operator="out"/>
<feColorMatrix type="matrix" values="0 0 0 0 0 0 0 0 0 0 0 0 0 0 0 0 0 0 0.25 0"/>
<feBlend mode="normal" in2="BackgroundImageFix" result="effect1_dropShadow_52_9"/>
<feBlend mode="normal" in="SourceGraphic" in2="effect1_dropShadow_52_9" result="shape"/>
</filter>
</defs>
</svg>
