<svg width="145" height="57" viewBox="0 0 145 57" fill="none" xmlns="http://www.w3.org/2000/svg">
<path d="M26.0857 9.01891C26.1872 9.01891 26.2742 9.01891 26.3322 8.98991C26.6802 8.90291 26.9557 8.62741 27.0717 8.23591C27.2312 7.65591 27.0862 6.74241 26.3612 6.03191C26.1292 5.79991 25.7667 5.79991 25.5347 6.03191C25.3027 6.26391 25.3027 6.62641 25.5347 6.85841C25.9117 7.23541 25.9842 7.67041 25.9552 7.87341C25.1722 7.87341 23.5772 7.22091 23.4177 6.95991C23.2582 6.66991 22.9102 6.56841 22.6202 6.72791C22.3447 6.88741 22.2432 7.23541 22.3882 7.52541C22.9247 8.46791 25.1867 9.01891 26.0857 9.01891Z" fill="#04213E"/>
<path d="M0 54.3604C0 55.7089 9.0335 56.8109 20.1985 56.8109C31.3635 56.8109 40.397 55.7089 40.397 54.3604C40.397 53.0119 31.349 51.9099 20.1985 51.9099C17.748 51.9099 15.3845 51.9679 13.2095 52.0549C13.369 51.8664 13.514 51.6634 13.659 51.4604L13.6735 51.4459C14.0215 50.9239 14.326 50.3439 14.5435 49.7059L16.124 44.9499C19.1835 43.7609 21.518 41.3104 22.562 38.1929L27.5935 25.6069C27.7095 25.3314 27.5935 25.0269 27.3325 24.8819C27.0715 24.7369 26.7525 24.8094 26.5785 25.0414C24.505 27.8109 19.5025 33.6544 15.3555 35.9744C16.1385 34.1474 16.965 31.3489 16.965 29.1014C16.965 26.7089 17.5885 22.2574 19.314 19.0094C19.7925 19.8069 20.3725 20.4884 21.0685 20.8074C21.344 20.9379 21.6195 20.9959 21.895 20.9959C22.127 20.9959 22.3445 20.9524 22.5765 20.8654C22.823 20.8074 23.0405 20.6334 23.1565 20.3724C23.5335 19.5604 22.997 17.2259 22.33 15.3844C22.707 15.4279 23.084 15.4424 23.461 15.4279C23.925 16.8779 24.94 19.4154 26.477 20.1259C26.7525 20.2564 27.028 20.3144 27.3035 20.3144C27.5355 20.3144 27.753 20.2709 27.985 20.1839C28.188 20.1404 28.362 20.0244 28.4925 19.8359C29.058 19.0094 28.3475 16.5009 27.9705 15.3409C28.0285 14.8189 27.985 14.2244 27.927 13.6734C27.8835 13.1369 27.7965 12.1654 27.9415 11.9769C28.913 11.4259 29.6235 10.3529 30.1455 8.59841C31.3635 8.62741 32.712 8.40991 33.205 8.00391C33.234 7.97491 33.263 7.94591 33.292 7.91691C33.3065 7.90241 33.321 7.88791 33.3355 7.87341C33.35 7.85891 33.35 7.84441 33.3645 7.82991C33.379 7.80091 33.3935 7.77191 33.408 7.75741L33.4225 7.74291C33.437 7.71391 33.4515 7.67041 33.466 7.64141C33.5095 7.49641 33.5095 7.33691 33.466 7.16291C33.176 6.20591 30.682 4.81391 29.667 4.45141C29.638 4.42241 29.609 4.37891 29.58 4.33541C29.5655 4.32091 29.5655 4.30641 29.551 4.29191C29.522 4.24841 29.4785 4.20491 29.4495 4.16141C29.435 4.14691 29.435 4.13241 29.4205 4.13241C29.377 4.07441 29.3335 4.03091 29.2755 3.97291C29.2755 3.97291 29.2755 3.97291 29.261 3.95841C25.6215 -0.101586 13.2385 -5.22009 7.714 12.4554C7.424 13.3834 7.134 14.2824 6.8585 15.1814C6.0175 17.8349 5.2635 20.2564 4.6545 22.3299L1.6965 31.2764C0.7975 34.0024 1.0005 36.9894 2.262 39.5559L1.0875 43.0069C1.0295 43.0794 1.0005 43.1809 1.0005 43.2824L0.464 44.8629C0.2465 45.5154 0.116 46.1679 0.0725 46.8204C0.0725 46.8349 0.0725 46.8494 0.0725 46.8639C0.0725 46.8639 0.0725 46.8639 0.0725 46.8784C-0.058 49.2854 1.0005 51.6199 2.871 53.1134C2.8565 53.1134 0 53.9109 0 54.3604ZM14.2825 46.7479C12.615 45.5299 10.7735 44.5729 8.8015 43.8914C6.728 43.1809 4.582 42.7894 2.4215 42.7459L3.219 40.3679C5.394 40.3679 7.5545 40.7304 9.628 41.4554C11.6 42.1369 13.427 43.1084 15.08 44.3554L14.2825 46.7479ZM21.605 32.4654C22.91 31.1894 24.099 29.8554 25.0705 28.7244L21.46 37.7579C21.46 37.7724 21.4455 37.7724 21.4455 37.7869C20.996 39.1499 20.271 40.3679 19.3285 41.3829C18.299 41.4989 16.8055 41.5569 15.4425 41.2814C15.9355 41.0349 16.3995 40.7159 16.8345 40.3534C17.7915 39.5269 18.502 38.4684 18.8935 37.2649C18.937 37.1199 18.908 36.9604 18.792 36.8444C18.676 36.7284 18.5165 36.6994 18.3715 36.7429C17.748 36.9459 17.0085 37.0619 16.2545 37.0619C16.0805 37.0619 15.9065 37.0619 15.7325 37.0474C17.458 36.1629 19.4155 34.6259 21.605 32.4654ZM16.269 37.9174C16.791 37.9029 17.313 37.8594 17.806 37.7579C17.4435 38.5119 16.9215 39.1934 16.2835 39.7444C15.631 40.3099 14.877 40.7159 14.065 40.9624C13.9345 41.0059 13.833 41.1074 13.7895 41.2379C13.746 41.3684 13.775 41.5134 13.862 41.6149L13.8765 41.6294C13.92 41.6874 13.978 41.7309 14.0505 41.7599C15.7905 42.4414 18.067 42.3254 18.386 42.3109C17.719 42.8619 16.965 43.3259 16.153 43.6884C14.326 42.2384 12.267 41.1219 10.0485 40.3534C9.831 40.2809 9.599 40.2084 9.3815 40.1359C9.4105 39.1934 9.4975 38.2364 9.599 37.3084C10.0775 37.5549 10.585 37.7579 11.0925 37.9319C11.2375 37.9754 11.542 38.0479 11.542 38.0479C12.325 38.2074 13.224 38.1059 14.1955 37.7724C14.2245 37.7579 14.326 37.7289 14.3695 37.7144C14.9205 37.8594 15.573 37.9319 16.269 37.9174ZM9.715 36.0614C9.773 35.6409 9.831 35.2349 9.889 34.8434C9.918 34.8869 9.9325 34.9159 9.9615 34.9594C10.3385 35.5394 10.6865 36.0614 10.875 36.6269C10.4835 36.4529 10.092 36.2644 9.715 36.0614ZM15.776 29.1014C15.776 31.8564 14.355 35.6119 13.659 36.7284C13.1225 36.8879 12.6295 36.9749 12.1655 36.9604C12.0205 35.9309 11.4695 35.1189 10.9475 34.3214C10.6865 33.9299 10.4255 33.5239 10.208 33.1034C10.3965 32.1464 10.5705 31.3779 10.701 30.9139C10.904 30.2034 11.5275 28.9854 12.2525 27.5934C13.833 24.5339 15.9935 20.4014 16.704 16.0514C17.139 16.1094 17.5885 16.1384 18.038 16.1094C18.1975 16.5734 18.4005 17.1679 18.6615 17.7624C16.5445 21.2279 15.776 26.4044 15.776 29.1014ZM27.492 19.0819C27.318 19.1399 27.144 19.1399 26.941 19.0384C26.303 18.7484 25.607 17.7334 25.0125 16.3124C25.433 16.6024 25.8825 16.7619 26.3465 16.7619C26.5785 16.7619 26.796 16.7329 27.028 16.6459C27.057 16.6314 27.0715 16.6314 27.1005 16.6169C27.4195 17.8494 27.5355 18.7484 27.492 19.0819ZM4.408 28.7389V28.7099C4.437 26.7959 6.0755 21.5759 7.975 15.5294C8.2505 14.6449 8.5405 13.7314 8.8305 12.8034C14.3115 -4.71259 26.6945 1.50791 28.884 5.46641C28.884 5.46641 29.1595 5.46641 29.5365 5.64041C29.696 5.71291 29.8845 5.79991 30.0875 5.91591C30.798 6.30741 31.639 6.87291 32.0595 7.23541C31.5085 7.38041 30.5225 7.45291 29.754 7.40941C29.725 7.40941 29.696 7.40941 29.6815 7.40941C29.261 7.38041 28.913 7.32241 28.7535 7.22091C28.478 7.04691 28.1155 7.10491 27.9415 7.38041C27.7675 7.65591 27.8255 8.01841 28.101 8.19241C28.2895 8.32291 28.5795 8.40991 28.9275 8.48241C28.507 9.80191 27.985 10.5849 27.3325 10.9619C26.5205 11.4259 26.622 12.5569 26.7235 13.7749C26.7525 14.1519 26.8105 14.8334 26.767 15.2539C26.7525 15.2974 26.7525 15.3409 26.7525 15.3844C26.738 15.4714 26.709 15.5439 26.6655 15.5729C25.4475 15.9644 24.4615 13.8619 24.186 13.2094C23.374 11.2229 21.75 11.3099 21.2715 11.3824C20.9525 11.4259 20.735 11.7304 20.7785 12.0494C20.822 12.3684 21.1265 12.5859 21.4455 12.5424C21.866 12.4844 22.649 12.5424 23.0985 13.6299C23.1855 13.8474 23.287 14.0504 23.374 14.2389C22.852 14.2679 22.3155 14.2244 21.779 14.1084C21.605 13.7169 21.431 13.3979 21.2715 13.1804C20.1985 11.6869 17.1245 10.8894 16.7765 10.8024C16.4575 10.7299 16.1385 10.9184 16.066 11.2229C15.9935 11.5274 16.182 11.8609 16.4865 11.9334C17.313 12.1364 19.6185 12.8904 20.3145 13.8619C20.503 14.1229 20.851 14.8624 20.88 14.9204C21.576 16.5444 22.1995 19.0674 22.0835 19.7779C21.9095 19.8504 21.7355 19.8359 21.5325 19.7344C20.677 19.3284 19.6765 17.6029 19.0095 15.3119L18.8645 14.8334L18.3715 14.8914C15.6745 15.2394 12.8905 13.4124 12.238 12.0494C12.093 11.7594 11.745 11.6434 11.455 11.7739C11.165 11.9189 11.0345 12.2669 11.1795 12.5569C11.7595 13.7604 13.456 15.1669 15.544 15.7904C14.877 19.9664 12.76 24.0409 11.2085 27.0424C10.4255 28.5649 9.7875 29.7684 9.57 30.5949C9.396 31.1894 9.2075 32.0594 9.019 33.0744V33.0889C8.8595 34.1909 8.2505 38.6279 8.1925 39.8169C7.946 39.7589 7.685 39.7009 7.4385 39.6429C7.5255 39.2514 7.5835 38.7584 7.5835 38.1204C7.5835 36.9024 6.8875 35.5974 6.1625 34.2054C5.278 32.5524 4.2775 30.6819 4.408 28.7389ZM2.7985 31.6389L3.306 30.1164C3.567 31.7984 4.379 33.3499 5.1185 34.7419C5.7855 35.9889 6.409 37.1779 6.409 38.1059C6.409 38.6714 6.351 39.1064 6.2785 39.4254C5.3215 39.2804 4.3645 39.2079 3.393 39.1934C2.1895 36.8734 1.972 34.1329 2.7985 31.6389ZM5.4375 53.2149C2.9 52.3449 1.2905 49.9959 1.218 47.4439C3.2335 47.4874 5.249 47.8499 7.192 48.5169C9.0625 49.1549 10.788 50.0684 12.3685 51.2284C10.759 53.2294 8.004 54.0994 5.4375 53.2149ZM7.569 47.4149C5.539 46.7044 3.422 46.3419 1.2905 46.2839C1.3485 45.9359 1.4355 45.5734 1.5515 45.2399L2.001 43.9204C4.176 43.9204 6.322 44.2829 8.3955 45.0079C10.382 45.6894 12.2235 46.6754 13.8765 47.9369L13.4125 49.3434C13.2965 49.6624 13.166 49.9669 13.0065 50.2569C11.3535 49.0534 9.5265 48.0964 7.569 47.4149Z" fill="#04213E"/>
<path d="M42.8473 15.3989V24.6934H40.4258V15.3989H42.8473Z" fill="#04213E"/>
<path d="M47.2554 24.6934V15.3989H49.6769L54.1429 21.0829V15.3989H56.5499V24.6934H54.1429L49.6769 19.0094V24.6934H47.2554Z" fill="#04213E"/>
<path d="M60.958 24.6934V15.3989H63.365L67.831 21.0829V15.3989H70.238V24.6934H67.831L63.365 19.0094V24.6934H60.958Z" fill="#04213E"/>
<path d="M74.3413 20.0537C74.3413 19.3577 74.4718 18.7197 74.7183 18.1252C74.9793 17.5307 75.3273 17.0087 75.7768 16.5592C76.2263 16.1097 76.7628 15.7617 77.4008 15.5152C78.0243 15.2687 78.7203 15.1382 79.4743 15.1382C80.2283 15.1382 80.9098 15.2687 81.5478 15.5152C82.1858 15.7617 82.7223 16.1097 83.1863 16.5592C83.6503 17.0087 83.9983 17.5307 84.2448 18.1252C84.5058 18.7197 84.6218 19.3577 84.6218 20.0537C84.6218 20.7497 84.4913 21.3877 84.2448 21.9822C83.9838 22.5767 83.6358 23.0987 83.1863 23.5482C82.7368 23.9977 82.1858 24.3457 81.5478 24.5922C80.9098 24.8387 80.2283 24.9692 79.4743 24.9692C78.7203 24.9692 78.0243 24.8387 77.4008 24.5922C76.7773 24.3457 76.2263 23.9977 75.7768 23.5482C75.3273 23.0987 74.9793 22.5912 74.7183 21.9822C74.4573 21.3732 74.3413 20.7352 74.3413 20.0537ZM76.8643 20.0537C76.8643 20.4307 76.9368 20.7642 77.0818 21.0832C77.2268 21.3877 77.4153 21.6632 77.6473 21.8952C77.8793 22.1272 78.1693 22.3012 78.4738 22.4317C78.7928 22.5622 79.1263 22.6202 79.4743 22.6202C79.8223 22.6202 80.1703 22.5622 80.4748 22.4317C80.7793 22.3012 81.0693 22.1272 81.3158 21.8952C81.5623 21.6632 81.7508 21.3877 81.8958 21.0832C82.0408 20.7787 82.1133 20.4307 82.1133 20.0537C82.1133 19.6767 82.0408 19.3432 81.8958 19.0242C81.7508 18.7197 81.5623 18.4442 81.3158 18.2122C81.0693 17.9802 80.7938 17.8062 80.4748 17.6757C80.1558 17.5452 79.8223 17.4872 79.4743 17.4872C79.1263 17.4872 78.7783 17.5452 78.4738 17.6757C78.1693 17.8062 77.8793 17.9802 77.6473 18.2122C77.4153 18.4442 77.2123 18.7197 77.0818 19.0242C76.9368 19.3432 76.8643 19.6767 76.8643 20.0537Z" fill="#04213E"/>
<path d="M89.8418 15.3989L92.0893 21.0539L94.3513 15.3989H96.9758L93.0608 24.6934H91.1323L87.2173 15.3989H89.8418Z" fill="#04213E"/>
<path d="M105.372 23.0839H101.921L101.37 24.6934H98.7886L102.327 15.3989H104.966L108.504 24.6934H105.923L105.372 23.0839ZM104.719 21.2424L103.632 18.1539L102.544 21.2424H104.719Z" fill="#04213E"/>
<path d="M115.144 17.4434V24.6934H112.723V17.4434H110.736V15.3989H117.116V17.4434C117.131 17.4434 115.144 17.4434 115.144 17.4434Z" fill="#04213E"/>
<path d="M123.076 15.3989V24.6934H120.654V15.3989C120.669 15.3989 123.076 15.3989 123.076 15.3989Z" fill="#04213E"/>
<path d="M129.151 15.3989L131.399 21.0539L133.661 15.3989H136.285L132.37 24.6934H130.442L126.527 15.3989H129.151Z" fill="#04213E"/>
<path d="M145 17.4434H142.129V18.9949H144.841V21.0394H142.129V22.6489H145V24.6934H139.708V15.3989H145V17.4434Z" fill="#04213E"/>
<path d="M48.2413 32.7844H42.7893V36.5544H48.0528V38.7729H42.7893V46.2259H40.4258V30.5659H48.2558L48.2413 32.7844Z" fill="#04213E"/>
<path d="M54.375 38.3379C54.375 36.1339 55.187 34.2344 56.7965 32.6539C58.406 31.0734 60.349 30.2759 62.5965 30.2759C64.844 30.2759 66.7435 31.0734 68.3385 32.6684C69.948 34.2634 70.7455 36.1774 70.7455 38.4249C70.7455 40.6724 69.948 42.5864 68.3385 44.1524C66.729 45.7329 64.7715 46.5159 62.4805 46.5159C60.4505 46.5159 58.638 45.8199 57.0285 44.4134C55.274 42.8764 54.375 40.8464 54.375 38.3379ZM56.7675 38.3669C56.7675 40.0924 57.3475 41.5279 58.5075 42.6444C59.6675 43.7609 61.0015 44.3119 62.5095 44.3119C64.148 44.3119 65.54 43.7464 66.671 42.6009C67.802 41.4554 68.3675 40.0489 68.3675 38.3959C68.3675 36.7429 67.802 35.3219 66.7 34.1909C65.598 33.0599 64.2205 32.4799 62.582 32.4799C60.9435 32.4799 59.5805 33.0454 58.4495 34.1909C57.333 35.3219 56.7675 36.7139 56.7675 38.3669Z" fill="#04213E"/>
<path d="M80.6635 38.0479L76.357 30.5659H79.0395L82.0265 35.8729L85.173 30.5659H87.8845L83.375 38.0479L88.1165 46.2404H85.463L81.9975 40.2374L78.4305 46.2404H75.748L80.6635 38.0479Z" fill="#04213E"/>
<path d="M103.022 32.7844H96.7439V36.5544H102.848V38.7729H96.7439V44.0074H103.022V46.2259H94.3804V30.5659H103.022V32.7844Z" fill="#04213E"/>
<path d="M120.06 32.9006L118.146 34.0316C117.784 33.4081 117.45 33.0021 117.117 32.8136C116.783 32.5961 116.348 32.4946 115.812 32.4946C115.159 32.4946 114.608 32.6831 114.173 33.0601C113.738 33.4226 113.521 33.8866 113.521 34.4376C113.521 35.2061 114.086 35.8151 115.232 36.2791L116.798 36.9171C118.074 37.4391 119.002 38.0626 119.582 38.8021C120.162 39.5416 120.466 40.4551 120.466 41.5281C120.466 42.9636 119.988 44.1526 119.031 45.0951C118.059 46.0376 116.856 46.5161 115.435 46.5161C114.072 46.5161 112.955 46.1101 112.071 45.3126C111.201 44.5151 110.65 43.3696 110.432 41.9196L112.825 41.3976C112.926 42.3111 113.115 42.9491 113.39 43.3116C113.883 43.9931 114.594 44.3266 115.522 44.3266C116.261 44.3266 116.87 44.0801 117.363 43.5871C117.856 43.0941 118.088 42.4706 118.088 41.7021C118.088 41.3976 118.045 41.1221 117.958 40.8611C117.871 40.6001 117.74 40.3681 117.566 40.1651C117.392 39.9621 117.16 39.7591 116.87 39.5706C116.58 39.3821 116.247 39.2081 115.855 39.0341L114.347 38.4106C112.201 37.5116 111.128 36.1776 111.128 34.4376C111.128 33.2631 111.578 32.2771 112.477 31.4796C113.376 30.6821 114.492 30.2761 115.841 30.2761C117.624 30.2616 119.031 31.1461 120.06 32.9006Z" fill="#04213E"/>
</svg>
