<svg width="80" height="80" viewBox="0 0 80 80" fill="none" xmlns="http://www.w3.org/2000/svg">
<circle cx="40" cy="40" r="40" fill="#F2EEE6"/>
<path d="M45.3517 22.5351C45.4446 22.5351 45.5161 22.528 45.5732 22.5137C45.8948 22.4422 46.1307 22.1921 46.2379 21.8276C46.388 21.3059 46.245 20.484 45.6018 19.8337C45.3946 19.6264 45.0658 19.6264 44.8586 19.8337C44.6513 20.0409 44.6513 20.3697 44.8586 20.5769C45.2016 20.92 45.2659 21.313 45.2445 21.4846H45.2374C44.537 21.4846 43.0862 20.8985 42.9575 20.6555C42.8146 20.3983 42.493 20.3053 42.2429 20.4483C41.9856 20.5912 41.8998 20.9128 42.0356 21.163C42.5144 22.042 44.5513 22.5351 45.3517 22.5351Z" fill="#01203F"/>
<path d="M21.8604 63.3858C21.8604 64.6079 30.0005 65.5941 40.0488 65.5941C50.0971 65.5941 58.2372 64.6079 58.2372 63.3858C58.2372 62.1637 50.0971 61.1774 40.0488 61.1774C37.8333 61.1774 35.7107 61.2275 33.7525 61.3132C33.8954 61.1417 34.0312 60.963 34.1527 60.7844C34.1599 60.7772 34.1599 60.7701 34.167 60.7629C34.4886 60.2912 34.753 59.7695 34.946 59.2049L36.3682 54.9169C39.1197 53.8449 41.228 51.6365 42.1642 48.8207L46.7024 37.4789C46.8024 37.2359 46.7024 36.95 46.4737 36.8214C46.245 36.6928 45.952 36.7499 45.7947 36.9643C43.9294 39.4514 39.4198 44.7257 35.6821 46.8125C36.3825 45.1688 37.1329 42.6388 37.1329 40.6163C37.1258 38.458 37.6975 34.4415 39.2483 31.5185C39.6771 32.2332 40.206 32.8478 40.8206 33.1337C41.0636 33.248 41.3137 33.3052 41.5639 33.3052C41.7711 33.3052 41.9784 33.2695 42.1713 33.1909C42.4 33.1408 42.5858 32.9836 42.693 32.7549C43.0361 32.0188 42.5501 29.9177 41.9426 28.2596C42.2857 28.2954 42.6287 28.3096 42.9646 28.2954C43.3863 29.5961 44.3011 31.8902 45.6804 32.5262C45.9234 32.6406 46.1735 32.6977 46.4236 32.6977C46.6309 32.6977 46.8381 32.662 47.0311 32.5834C47.2169 32.5405 47.3742 32.4333 47.4885 32.2689C47.9959 31.5185 47.3527 29.2673 47.0097 28.2239C47.0597 27.7593 47.0168 27.2233 46.9739 26.7159C46.9311 26.2371 46.8596 25.3509 46.9954 25.1937C47.8673 24.7006 48.5105 23.7286 48.9893 22.142C50.0899 22.1635 51.3049 21.9776 51.7408 21.606C51.7694 21.5846 51.7908 21.556 51.8194 21.5346C51.8337 21.5203 51.8409 21.506 51.8551 21.4917C51.8623 21.4774 51.8766 21.4702 51.8837 21.4559C51.898 21.4345 51.9123 21.4059 51.9266 21.3845C51.9266 21.3773 51.9338 21.3773 51.9338 21.3702C51.9481 21.3416 51.9552 21.313 51.9695 21.2773C52.0124 21.1415 52.0124 20.9985 51.9623 20.8485C51.7051 19.9837 49.4538 18.7259 48.5391 18.4114C48.5176 18.3757 48.489 18.3471 48.4676 18.3114C48.4605 18.2971 48.4462 18.2828 48.439 18.2685C48.4104 18.2256 48.3747 18.1899 48.339 18.147C48.3318 18.1399 48.3247 18.1256 48.3175 18.1184C48.2746 18.0684 48.2318 18.0184 48.1889 17.9755C48.1889 17.9683 48.1817 17.9683 48.1817 17.9683C44.9443 14.3235 33.7882 9.71387 28.807 25.6368C28.5497 26.4658 28.2853 27.2877 28.0351 28.0881C27.2847 30.4822 26.5915 32.662 26.0483 34.5344L23.3826 42.5888C22.5679 45.0473 22.7608 47.7344 23.89 50.05L22.8395 53.1517C22.7894 53.2231 22.7608 53.3089 22.7537 53.4018L22.2749 54.8168C22.0748 55.4029 21.9604 55.996 21.9247 56.5821C21.9247 56.5964 21.9175 56.6107 21.9175 56.625C21.9175 56.6321 21.9175 56.6321 21.9175 56.6321C21.796 58.7976 22.7465 60.8987 24.4332 62.2494C24.4332 62.2494 21.8604 62.9713 21.8604 63.3858ZM34.7245 56.5321C33.2236 55.4315 31.5585 54.5667 29.7789 53.9521C27.9136 53.3089 25.984 52.9587 24.0258 52.923L24.7476 50.7861H24.7548C26.713 50.7861 28.6569 51.1148 30.5293 51.7652C32.3017 52.3798 33.9526 53.2589 35.432 54.3809C35.4391 54.3666 34.7245 56.5321 34.7245 56.5321ZM41.3137 43.668C42.4858 42.5102 43.5649 41.3238 44.4368 40.3018L41.1779 48.442C41.1708 48.4491 41.1708 48.4634 41.1637 48.4705C40.7563 49.6998 40.0988 50.7932 39.2483 51.708C38.3264 51.8081 36.9757 51.8724 35.7464 51.6223C36.1967 51.3936 36.6112 51.1148 36.9971 50.7861C37.8547 50.05 38.4979 49.0852 38.8553 48.006C38.8981 47.8702 38.8624 47.7273 38.7695 47.6272C38.6694 47.5272 38.5265 47.4914 38.3907 47.5343C37.8333 47.713 37.1543 47.8131 36.4897 47.8273C36.3325 47.8345 36.1752 47.8273 36.0252 47.8202C37.5831 46.9912 39.3484 45.6047 41.3137 43.668ZM36.5111 48.5778C36.99 48.5706 37.4545 48.5206 37.8976 48.4348C37.5688 49.1209 37.1043 49.7284 36.5254 50.2215C35.9394 50.7289 35.2605 51.1005 34.5243 51.3149C34.4028 51.3507 34.3099 51.4436 34.2742 51.5579C34.2385 51.6794 34.2599 51.8081 34.3385 51.901L34.3457 51.9153C34.3886 51.9653 34.4386 52.001 34.5029 52.0296C36.068 52.6442 38.1191 52.537 38.405 52.5227C37.7975 53.023 37.1186 53.4375 36.3896 53.7663C34.7459 52.4656 32.8877 51.4579 30.8867 50.7646C30.6866 50.6932 30.4864 50.6289 30.2863 50.5717C30.3149 49.7284 30.3864 48.8636 30.4793 48.0203C30.9152 48.2419 31.3655 48.4277 31.83 48.5849C31.9587 48.6278 32.2302 48.6921 32.2374 48.6921C32.9521 48.8279 33.7454 48.7493 34.6315 48.4491C34.653 48.442 34.753 48.4062 34.7816 48.3991C35.2962 48.5206 35.8894 48.5778 36.5111 48.5778ZM30.6151 46.8983C30.6651 46.5195 30.7223 46.1479 30.7795 45.7977C30.8009 45.8334 30.8223 45.8691 30.8438 45.8977C31.1868 46.4194 31.5013 46.8911 31.6657 47.3985C31.3083 47.2556 30.9581 47.0841 30.6151 46.8983ZM36.0752 40.6234C36.0823 43.1105 34.8031 46.4838 34.1742 47.4914C33.6953 47.6415 33.2451 47.713 32.8234 47.6987C32.6876 46.7696 32.2017 46.0335 31.73 45.3188C31.4941 44.9687 31.2583 44.6042 31.0653 44.2182C31.2297 43.3535 31.3941 42.6603 31.5084 42.2529C31.6871 41.6097 32.2517 40.5162 32.9092 39.2584C34.3385 36.4998 36.2753 32.7763 36.9114 28.8671C37.3044 28.9243 37.7046 28.9457 38.112 28.9243C38.2478 29.3459 38.4407 29.8748 38.6766 30.4179C36.7613 33.541 36.0752 38.2007 36.0752 40.6234ZM46.6237 31.6043C46.4594 31.6615 46.3021 31.6543 46.1235 31.5686C45.5589 31.3041 44.9228 30.3965 44.3868 29.1101C44.7656 29.3745 45.173 29.5103 45.5875 29.5103C45.7876 29.5103 45.9948 29.4746 46.2021 29.4102C46.2235 29.4031 46.245 29.3888 46.2664 29.3817C46.5666 30.4894 46.6666 31.297 46.6237 31.6043ZM25.8268 40.3018V40.2733C25.8482 38.5509 27.3276 33.8484 29.0428 28.4026C29.2929 27.6021 29.5502 26.7802 29.8147 25.9441C34.753 10.1713 45.9091 15.7743 47.8816 19.3405C47.8816 19.3405 48.1246 19.3405 48.4747 19.4977C48.6177 19.5621 48.7821 19.6478 48.9679 19.7407C49.6111 20.0909 50.3686 20.6055 50.7403 20.9271C50.2471 21.0486 49.3609 21.1129 48.6677 21.0772C48.6463 21.0772 48.6177 21.07 48.5962 21.07C48.2175 21.0486 47.9102 20.9914 47.7672 20.8913C47.5242 20.727 47.1955 20.7913 47.0383 21.0343C46.8739 21.2773 46.9382 21.606 47.1812 21.7632C47.3527 21.8776 47.61 21.9634 47.9245 22.0277C47.5457 23.2069 47.0811 23.9287 46.488 24.2646C45.759 24.6791 45.8448 25.7011 45.9377 26.7945C45.9662 27.1376 46.0163 27.7522 45.9805 28.1167C45.9662 28.1524 45.9662 28.1953 45.9591 28.2382C45.9448 28.3168 45.9162 28.374 45.8876 28.4026C44.787 28.7599 43.9008 26.866 43.6579 26.2728C42.9289 24.5147 41.4638 24.5862 41.035 24.6505C40.7491 24.6934 40.549 24.9578 40.5919 25.2508C40.6348 25.5367 40.8992 25.7368 41.1922 25.6939C41.571 25.6368 42.2785 25.6868 42.6859 26.6802C42.7645 26.8732 42.8503 27.0518 42.936 27.2305C42.4715 27.2519 41.9855 27.2162 41.4995 27.109C41.3352 26.7517 41.1779 26.4658 41.0422 26.2728C40.0773 24.9292 37.3044 24.2074 36.99 24.1217C36.7112 24.0502 36.4182 24.2217 36.3468 24.5076C36.2753 24.7863 36.4468 25.0793 36.7327 25.1508C37.4831 25.3366 39.5556 26.0155 40.1845 26.8946C40.3489 27.1233 40.6634 27.8022 40.6848 27.8523C41.3066 29.3173 41.8783 31.59 41.7711 32.226C41.6067 32.2832 41.4495 32.2761 41.2709 32.1903C40.499 31.833 39.6057 30.2678 38.991 28.2024L38.8624 27.7736L38.4193 27.8308C35.9894 28.1381 33.4809 26.4944 32.8949 25.2723C32.7663 25.0079 32.4518 24.9007 32.1874 25.0222C31.9229 25.1508 31.8157 25.4653 31.9372 25.7297C32.4589 26.816 33.9955 28.081 35.8679 28.6384C35.2676 32.4047 33.3666 36.0638 31.9587 38.7724C31.244 40.1446 30.6866 41.2238 30.4793 41.9742C30.3292 42.5173 30.1505 43.2963 29.979 44.2111C29.979 44.2182 29.979 44.2183 29.979 44.2254C29.8361 45.2259 29.2858 49.2138 29.2358 50.2858C29.0071 50.2286 28.7784 50.1786 28.5497 50.1286C28.6212 49.7784 28.6855 49.3353 28.6855 48.7564C28.6926 47.6558 28.0637 46.4766 27.4062 45.2331C26.6129 43.7323 25.7196 42.0456 25.8268 40.3018ZM24.3831 42.9175L24.8405 41.5454C25.0764 43.0676 25.8125 44.4612 26.4771 45.7191C27.0775 46.8482 27.6421 47.906 27.6349 48.7493C27.6349 49.2567 27.5777 49.6426 27.5134 49.9356C26.6558 49.807 25.7839 49.7355 24.912 49.7284C23.84 47.6344 23.6399 45.1688 24.3831 42.9175ZM26.763 62.3495C24.4761 61.5633 23.0253 59.4408 22.9609 57.161C24.7834 57.2038 26.5915 57.5254 28.3353 58.1258C30.0148 58.7047 31.5799 59.5265 33.0021 60.5628C31.5513 62.3566 29.0714 63.1499 26.763 62.3495ZM28.6855 57.1324C26.8488 56.4963 24.9549 56.1604 23.0324 56.1104C23.0824 55.7959 23.1611 55.4743 23.2683 55.167L23.6756 53.9735C25.6338 53.9735 27.5706 54.3023 29.4359 54.9455C31.2226 55.5601 32.8806 56.4534 34.3743 57.5898L33.9526 58.8619C33.8526 59.1549 33.7311 59.4265 33.5881 59.6909C32.0945 58.5975 30.4436 57.7399 28.6855 57.1324Z" fill="#01203F"/>
</svg>
